<?xml version="1.0" encoding="UTF-8"?>
<svg width="28px" height="25px" viewBox="0 0 28 25" version="1.1" xmlns="http://www.w3.org/2000/svg" xmlns:xlink="http://www.w3.org/1999/xlink">
    <!-- Generator: Sketch 48.1 (47250) - http://www.bohemiancoding.com/sketch -->
    <title>hex</title>
    <desc>Created with Sketch.</desc>
    <defs></defs>
    <g id="Page-1" stroke="none" stroke-width="1" fill="none" fill-rule="evenodd">
        <g id="hex" transform="translate(-1.000000, -2.000000)">
            <g transform="translate(1.000000, 2.000000)" fill="#00CC99" fill-rule="nonzero">
                <path d="M4.34392759,8.96989376 L4.34392759,16.3204288 C4.34392759,17.3922256 4.91572436,18.3826066 5.84392759,18.918505 L12.2096777,22.5937726 C13.1378809,23.1296709 14.2814744,23.1296709 15.2096777,22.5937726 L21.5754278,18.918505 C22.503631,18.3826066 23.0754278,17.3922256 23.0754278,16.3204288 L23.0754278,8.96989376 C23.0754278,7.89809699 22.503631,6.90771594 21.5754278,6.37181755 L15.2096777,2.69655003 C14.2814744,2.16065164 13.1378809,2.16065164 12.2096777,2.69655003 L5.84392759,6.37181755 C4.91572436,6.90771594 4.34392759,7.89809699 4.34392759,8.96989376 Z M14.3440467,-0.733247147 L24.9785348,5.40657741 C25.3710837,5.63321562 25.6129037,6.05206031 25.6129037,6.50533674 L25.6129037,18.7849858 C25.6129037,19.2382623 25.3710837,19.657107 24.9785348,19.8837452 L14.3440467,26.0235697 C13.9514978,26.2502079 13.4678576,26.2502079 13.0753087,26.0235697 L2.44082061,19.8837452 C2.04827171,19.657107 1.80645161,19.2382623 1.80645161,18.7849858 L1.80645161,6.50533674 C1.80645161,6.05206031 2.04827171,5.63321562 2.44082061,5.40657741 L13.0753087,-0.733247147 C13.4678576,-0.95988536 13.9514978,-0.95988536 14.3440467,-0.733247147 Z" id="Polygon" transform="translate(13.709678, 12.645161) rotate(90.000000) translate(-13.709678, -12.645161) "></path>
                <g id="restaurant" transform="translate(7.677419, 5.870968)">
                    <path d="M4.30835933,8.4579138 C4.25058435,8.46277234 4.19294818,8.46527102 4.13517319,8.46527102 C3.97711793,8.46527102 3.82339371,8.44233871 3.67286224,8.40749603 L0.189732946,11.8907364 C0.0187678477,12.0614516 0.0187678477,12.3387493 0.189732946,12.5094923 L1.09120042,13.4111819 C1.26216552,13.5819249 1.53915785,13.5819249 1.70965098,13.4111819 L5.89590825,9.22570201 L5.12009651,8.3886449 L4.30835933,8.4579138 Z" id="XMLID_98_"></path>
                    <path d="M13.4746761,2.87761634 C13.311207,2.71423057 13.0466526,2.71423057 12.8832113,2.87761634 L10.6259889,5.13478318 C10.4124075,5.34814252 10.0664516,5.34814252 9.85287017,5.13478318 C9.64023268,4.92159043 9.64023268,4.57591222 9.85287017,4.36277499 L12.0989318,2.11718535 C12.2686198,1.94733078 12.2686198,1.67197647 12.0989318,1.50173321 C11.9284387,1.33210074 11.6531954,1.33210074 11.4835074,1.50173321 L9.23836198,3.74710074 C9.02478054,3.96068218 8.67921338,3.96068218 8.46563194,3.74710074 C8.25249471,3.53399127 8.25249471,3.18806319 8.46563194,2.97512031 L10.7223823,0.718175568 C10.8862956,0.554539926 10.8862956,0.289485722 10.7223823,0.125627975 C10.5589133,-0.038035431 10.2938868,-0.038035431 10.1299736,0.125627975 L7.59081703,2.66492332 C6.98033448,3.27579455 6.78749207,4.13325754 6.98513749,4.91348361 L8.68729244,6.6157496 C9.46746298,6.81267319 10.3253424,6.61974749 10.9351309,6.00937599 L13.4746483,3.47021946 C13.6385894,3.30658382 13.6385894,3.04125198 13.4746761,2.87761634 Z" id="XMLID_97_"></path>
                    <path d="M1.14086859,0.355117663 C1.05385907,0.268080381 0.936199101,0.220355632 0.815374141,0.220355632 C0.789665521,0.220355632 0.763818086,0.222548916 0.738581438,0.226768905 C0.591575886,0.251644632 0.465448176,0.34601137 0.400649127,0.480329191 C-0.343124008,2.01765468 -0.0322884717,3.85718139 1.17507271,5.0645981 L3.33506875,7.2243165 C3.54817821,7.43767583 3.83633131,7.55578001 4.13517319,7.55578001 C4.1671285,7.55578001 4.19916711,7.55444738 4.23112242,7.55180989 L5.48520888,7.44478318 L10.9537322,13.3441341 C11.0386317,13.4358355 11.1575687,13.4890851 11.2828636,13.4915561 C11.2854455,13.4915561 11.2881386,13.4915561 11.2908593,13.4915561 C11.4133501,13.4915561 11.5306214,13.443165 11.6176586,13.3567663 L12.5542187,12.4200119 C12.6407562,12.3336687 12.6891195,12.2164807 12.6891195,12.0943509 C12.6891195,11.9722488 12.6407562,11.8549775 12.5545796,11.7686343 L1.14086859,0.355117663 Z" id="XMLID_96_"></path>
                </g>
            </g>
            <rect id="Rectangle" x="0" y="0" width="30" height="30"></rect>
        </g>
    </g>
</svg>